<?xml version="1.0" encoding="UTF-8"?>
<svg version="1.1" xmlns="http://www.w3.org/2000/svg" width="1132" height="191">
<path d="M0 0 C373.56 0 747.12 0 1132 0 C1132 63.03 1132 126.06 1132 191 C758.44 191 384.88 191 0 191 C0 127.97 0 64.94 0 0 Z " fill="#FEFEFE" transform="translate(0,0)"/>
<path d="M0 0 C0.87268021 -0.00525696 1.74536041 -0.01051392 2.64448547 -0.01593018 C5.50747994 -0.02905127 8.36991077 -0.02041861 11.23291016 -0.01025391 C13.23776353 -0.01227727 15.24261618 -0.0151909 17.24746704 -0.01895142 C21.44190503 -0.02336441 25.63615083 -0.01697807 29.83056641 -0.00292969 C35.18565919 0.01413931 40.54030007 0.00432885 45.89537621 -0.01364708 C50.03400016 -0.02453152 54.1725185 -0.02101687 58.31114578 -0.0132637 C60.28455281 -0.01127341 62.25796967 -0.01367946 64.2313652 -0.02070236 C80.14030206 -0.06489168 90.43551098 1.00188802 102.64697266 11.82568359 C112.77124545 23.35610539 112.37217183 36.88460347 112.36572266 51.37646484 C112.37283658 53.32643346 112.38053735 55.27640002 112.38879395 57.22636414 C112.40219408 61.30209173 112.4038279 65.37762577 112.39794922 69.45336914 C112.39206041 74.64465902 112.42263212 79.83501135 112.4630661 85.02612019 C112.4890721 89.05078528 112.49180882 93.07522854 112.48817444 97.09996605 C112.48985393 99.01230408 112.49938204 100.92465369 112.51731873 102.83690834 C112.64161553 117.72602079 111.44705689 129.96784989 100.50244141 141.22412109 C91.94440869 148.33229219 83.2716504 150.53393092 72.40991211 150.54931641 C71.56693069 150.55428131 70.72394928 150.55924622 69.85542297 150.56436157 C67.07369155 150.57893471 64.2920172 150.58577787 61.51025391 150.59130859 C59.56837463 150.59706497 57.62649536 150.60282264 55.68461609 150.60858154 C51.61355323 150.6190784 47.54251003 150.62492936 43.47143555 150.62841797 C38.27435896 150.63389338 33.07754558 150.65790665 27.88055134 150.68638992 C23.86804973 150.70508665 19.85561056 150.71022569 15.84306908 150.71175385 C13.92826082 150.71476611 12.0134533 150.72274605 10.09868813 150.73593903 C-5.77891342 150.83751036 -16.11453283 149.72525455 -28.07958984 138.54052734 C-38.5132951 127.72943275 -37.71351786 114.44116275 -37.66943359 100.39208984 C-37.67467795 98.35147317 -37.68095738 96.31085892 -37.68821716 94.27024841 C-37.69858486 90.00792985 -37.69411222 85.7459459 -37.67944336 81.48364258 C-37.66226123 76.04900616 -37.68576351 70.61542765 -37.72093296 65.18090916 C-37.74299991 60.97097402 -37.74144303 56.7612884 -37.73316765 52.5513134 C-37.73235322 50.5488462 -37.73911825 48.54635974 -37.75393867 46.54394722 C-37.84107596 32.64214262 -37.14437932 20.66617418 -26.98583984 10.06787109 C-19.13208528 3.06140956 -10.41589064 -0.07843379 0 0 Z " fill="#020202" transform="translate(51.10302734375,19.61181640625)"/>
<path d="M0 0 C0.72433228 -0.00524185 1.44866455 -0.0104837 2.19494629 -0.0158844 C3.73151369 -0.02230842 5.26813024 -0.02096262 6.8046875 -0.01245117 C9.12072429 -0.00403534 11.43421303 -0.03253683 13.75 -0.06445312 C32.61802596 -0.15653074 32.61802596 -0.15653074 39.67382812 6.27172852 C44.18514639 11.28666448 45.01272175 14.83076624 44.93359375 21.5390625 C44.46066411 26.47484925 42.86341721 30.53327661 39.0546875 33.8125 C37.40625 34.93359375 37.40625 34.93359375 34.65625 36.43359375 C35.19894531 36.8203125 35.74164063 37.20703125 36.30078125 37.60546875 C37.01621094 38.12625 37.73164063 38.64703125 38.46875 39.18359375 C39.53029297 39.94929688 39.53029297 39.94929688 40.61328125 40.73046875 C44.3583153 43.85252391 46.40116089 46.88270266 46.89453125 51.81640625 C47.0741537 58.45298301 46.48150001 63.85837599 42.65625 69.43359375 C36.54833006 75.48235708 29.37368416 76.74420277 21.08203125 76.734375 C20.27638229 76.73866013 19.47073334 76.74294525 18.64067078 76.74736023 C16.94722429 76.75307707 15.25375327 76.75362341 13.56030273 76.74926758 C10.96621329 76.74609064 8.37324698 76.76965692 5.77929688 76.79492188 C4.13020977 76.79719341 2.4811196 76.79789904 0.83203125 76.796875 C-0.33050423 76.81068962 -0.33050423 76.81068962 -1.51652527 76.82478333 C-6.8104175 76.77905997 -6.8104175 76.77905997 -9.04710388 75.33024597 C-10.99304681 72.4838433 -10.7252801 70.13760191 -10.73193359 66.71484375 C-10.73719055 66.03647461 -10.74244751 65.35810547 -10.74786377 64.65917969 C-10.76106635 62.4170834 -10.75232538 60.17569724 -10.7421875 57.93359375 C-10.74420818 56.37564965 -10.74711956 54.81770648 -10.75088501 53.25976562 C-10.75530869 49.99470006 -10.74887609 46.7298807 -10.73486328 43.46484375 C-10.71777113 39.27808026 -10.72761211 35.09189368 -10.74558067 30.90515137 C-10.75641746 27.68810676 -10.75297271 24.4711991 -10.7451973 21.25415039 C-10.74319499 19.71036715 -10.74565566 18.1665715 -10.75263596 16.62280273 C-10.76024901 14.46564771 -10.74864972 12.30942897 -10.73193359 10.15234375 C-10.72954681 8.92451172 -10.72716003 7.69667969 -10.72470093 6.43164062 C-10.34375 3.43359375 -10.34375 3.43359375 -9.02493286 1.53892517 C-6.2478722 -0.28691572 -3.21512762 -0.01360562 0 0 Z " fill="#242424" transform="translate(214.34375,51.56640625)"/>
<path d="M0 0 C0.72574722 -0.0066568 1.45149445 -0.0133136 2.19923401 -0.02017212 C3.74176501 -0.03031281 5.28434 -0.0349887 6.8269043 -0.03466797 C9.15165401 -0.03898862 11.47442139 -0.07513968 13.79882812 -0.11328125 C22.8534286 -0.18308417 32.54664408 -0.24911343 39.74194336 6.08642578 C45.30777899 12.05012933 46.2634799 17.9827976 46.13671875 25.96875 C45.41716973 32.29784443 42.78689969 37.13352793 38.50390625 41.7734375 C30.10843854 46.54358961 22.20265914 46.72064051 12.69140625 46.5234375 C11.44423828 46.50990234 10.19707031 46.49636719 8.91210938 46.48242188 C5.85891658 46.4473277 2.80664635 46.39816017 -0.24609375 46.3359375 C-0.23562012 47.20395996 -0.22514648 48.07198242 -0.21435547 48.96630859 C-0.18029659 52.18293278 -0.15520608 55.39946517 -0.13623047 58.61621094 C-0.12616498 60.00914531 -0.11251141 61.40205852 -0.09521484 62.79492188 C-0.07099155 64.7954811 -0.06068561 66.79619365 -0.05078125 68.796875 C-0.04030762 70.00134277 -0.02983398 71.20581055 -0.01904297 72.44677734 C-0.24609375 75.3359375 -0.24609375 75.3359375 -2.24609375 77.3359375 C-4.74609375 77.5859375 -4.74609375 77.5859375 -7.24609375 77.3359375 C-10.11794641 74.46408484 -9.49990827 72.46102105 -9.50488281 68.43945312 C-9.50838745 67.73036301 -9.51189209 67.02127289 -9.51550293 66.29069519 C-9.52432296 63.94109375 -9.51847027 61.59179213 -9.51171875 59.2421875 C-9.51306533 57.61315859 -9.51500579 55.98413007 -9.51751709 54.35510254 C-9.52046872 50.93868183 -9.51616952 47.52236561 -9.50683594 44.10595703 C-9.49544133 39.72076349 -9.50200061 35.33581474 -9.51398087 30.95063019 C-9.52119846 27.58610175 -9.51891201 24.22163161 -9.51372528 20.85710144 C-9.5123885 19.23992382 -9.51403749 17.62274095 -9.51868439 16.00556946 C-9.52374803 13.74771041 -9.51604201 11.49025106 -9.50488281 9.23242188 C-9.50329163 7.94605835 -9.50170044 6.65969482 -9.50006104 5.33435059 C-8.98611271 -0.73347571 -4.99122862 0.01589506 0 0 Z " fill="#202020" transform="translate(616.24609375,51.6640625)"/>
<path d="M0 0 C2.5 0.25 2.5 0.25 4.5 2.25 C4.75396729 5.28637695 4.75396729 5.28637695 4.75878906 9.23828125 C4.7622937 9.95712494 4.76579834 10.67596863 4.76940918 11.41659546 C4.77822965 13.79866116 4.77237636 16.18043115 4.765625 18.5625 C4.76697156 20.21394915 4.76891202 21.86539791 4.77142334 23.5168457 C4.77437503 26.98034433 4.77007557 30.4437399 4.76074219 33.90722656 C4.74934758 38.35295311 4.75590682 42.7984382 4.76788712 47.24415588 C4.77510454 50.65500721 4.77281834 54.06580102 4.76763153 57.47665405 C4.76629471 59.11616036 4.7679439 60.75567185 4.77259064 62.39517212 C4.777654 64.68416226 4.76994862 66.97275808 4.75878906 69.26171875 C4.75719788 70.56584717 4.75560669 71.86997559 4.75396729 73.21362305 C4.5 76.25 4.5 76.25 2.5 78.25 C0 78.5 0 78.5 -2.5 78.25 C-5.0654594 75.6845406 -5.04046087 73.77313332 -5.5 70.25 C-6.20125 71.013125 -6.9025 71.77625 -7.625 72.5625 C-13.19403512 77.76833717 -17.88605839 78.92648355 -25.390625 78.73046875 C-31.93580791 77.71908998 -36.7212212 74.29559562 -41 69.375 C-45.59554677 59.80094423 -46.36916313 47.32673854 -43.66015625 37.0703125 C-41.01740245 31.2153226 -37.06289346 27.40385801 -31.5 24.25 C-25.83136164 22.36045388 -19.41452272 22.16542905 -13.78125 24.26171875 C-10.05170206 26.27785424 -7.88359562 27.67460657 -5.5 31.25 C-5.48018066 30.38197754 -5.46036133 29.51395508 -5.43994141 28.61962891 C-5.36190128 25.40273733 -5.27521119 22.18622955 -5.18261719 18.96972656 C-5.14430673 17.57691428 -5.10945741 16.18400235 -5.078125 14.79101562 C-5.03252093 12.79013692 -4.97348377 10.78957854 -4.9140625 8.7890625 C-4.8826416 7.58459473 -4.8512207 6.38012695 -4.81884766 5.13916016 C-4.41178866 1.45069451 -3.75937098 0.3759371 0 0 Z " fill="#222222" transform="translate(811.5,50.75)"/>
<path d="M0 0 C6.02451649 3.13407751 11.30831267 8.91468216 13.6953125 15.32421875 C15.49715619 24.44809999 14.87557357 34.40634524 10.4375 42.625 C6.04147143 48.09033282 1.99781585 51.65483515 -4.875 53.5 C-12.47415692 54.31082816 -19.6789759 54.39159797 -25.875 49.5 C-33.68652676 41.93645822 -35.93076043 35.60414534 -36.25 24.75 C-36.16643013 16.81921925 -34.3450403 11.25687831 -28.9375 5.40234375 C-20.79939646 -2.10382372 -10.55723678 -4.09954555 0 0 Z " fill="#242424" transform="translate(742.875,75.5)"/>
<path d="M0 0 C5.15301722 3.660087 8.18789865 8.45520157 10.08984375 14.484375 C10.49087982 17.29060705 10.52022804 20.02841032 10.46484375 22.859375 C10.45469238 23.60815918 10.44454102 24.35694336 10.43408203 25.12841797 C10.20437023 33.32147236 8.6535613 39.89308882 2.8671875 45.9765625 C-3.25236154 51.16809202 -9.80708612 52.20088264 -17.6875 51.93359375 C-23.99071758 51.05496342 -29.46202364 48.39329629 -33.84765625 43.734375 C-39.81639707 34.32908644 -40.58347708 23.24340433 -38.25390625 12.44140625 C-35.6784144 5.10347473 -31.2825694 1.50782289 -24.78515625 -2.390625 C-16.51426841 -5.47594496 -7.51265201 -4.33469063 0 0 Z " fill="#232323" transform="translate(1041.91015625,77.515625)"/>
<path d="M0 0 C0.96421875 0.00644531 1.9284375 0.01289062 2.921875 0.01953125 C5.25 0.1875 5.25 0.1875 6.25 1.1875 C6.375 3.6875 6.375 3.6875 6.25 6.1875 C4.65646758 7.78103242 2.6933477 7.61304028 0.5 7.9375 C-2.95791357 8.6300721 -4.80411954 9.22284337 -7.8125 11.1875 C-10.59949322 15.00229227 -10.59949322 15.00229227 -10.75 24.1875 C-3.16 23.8575 4.43 23.5275 12.25 23.1875 C12.188125 19.784375 12.188125 19.784375 12.125 16.3125 C12.0546875 12.4453125 12.0546875 12.4453125 12.25 9.1875 C14.25 7.1875 14.25 7.1875 17.25 6.9375 C20.25 7.1875 20.25 7.1875 22.25 9.1875 C22.4453125 12.4453125 22.4453125 12.4453125 22.375 16.3125 C22.35695313 17.59382813 22.33890625 18.87515625 22.3203125 20.1953125 C22.29710937 21.18273437 22.27390625 22.17015625 22.25 23.1875 C23.38179687 23.16429688 24.51359375 23.14109375 25.6796875 23.1171875 C27.16145175 23.09843099 28.64322312 23.08023066 30.125 23.0625 C30.87136719 23.04574219 31.61773438 23.02898437 32.38671875 23.01171875 C34.34194461 22.9941041 36.29742021 23.08429811 38.25 23.1875 C39.24 24.1775 39.24 24.1775 40.25 25.1875 C40 27.75 40 27.75 39.25 30.1875 C34.17281793 32.72609104 27.92646212 31.1875 22.25 31.1875 C22.58 42.4075 22.91 53.6275 23.25 65.1875 C24.57 65.8475 25.89 66.5075 27.25 67.1875 C28.24 67.6825 28.24 67.6825 29.25 68.1875 C31.29055005 68.25815617 33.33334257 68.27171976 35.375 68.25 C36.47070312 68.24097656 37.56640625 68.23195313 38.6953125 68.22265625 C39.53835938 68.21105469 40.38140625 68.19945313 41.25 68.1875 C41.25 70.4975 41.25 72.8075 41.25 75.1875 C36.42603155 77.76028317 31.57191842 77.72052469 26.25 77.1875 C21.01502783 75.5569349 17.7598281 73.39929373 14.25 69.1875 C12.08760461 64.99087552 11.98613312 61.10294032 12.0546875 56.48046875 C12.0575174 55.75507401 12.06034729 55.02967926 12.06326294 54.28230286 C12.07440201 51.97969632 12.09949434 49.67748773 12.125 47.375 C12.13503794 45.80794835 12.14416237 44.24089057 12.15234375 42.67382812 C12.172614 38.84477775 12.2117729 35.01658104 12.25 31.1875 C4.66 31.1875 -2.93 31.1875 -10.75 31.1875 C-10.72679687 34.25675781 -10.70359375 37.32601562 -10.6796875 40.48828125 C-10.66409541 43.45694566 -10.65194814 46.42560554 -10.64013672 49.39428711 C-10.63007165 51.459412 -10.61641846 53.52452263 -10.59912109 55.58959961 C-10.57489507 58.55586264 -10.56352203 61.52193744 -10.5546875 64.48828125 C-10.54436493 65.4133699 -10.53404236 66.33845856 -10.52340698 67.2915802 C-10.52325592 68.15224594 -10.52310486 69.01291168 -10.52294922 69.8996582 C-10.518508 70.65688675 -10.51406677 71.4141153 -10.50949097 72.19429016 C-10.75 74.1875 -10.75 74.1875 -12.75 77.1875 C-15.75 77.5 -15.75 77.5 -18.75 77.1875 C-20.75 75.1875 -20.75 75.1875 -20.99050903 73.27658081 C-20.98606781 72.49936676 -20.98162659 71.72215271 -20.97705078 70.92138672 C-20.97682419 69.60024368 -20.97682419 69.60024368 -20.97659302 68.25241089 C-20.96627045 67.30028717 -20.95594788 66.34816345 -20.9453125 65.3671875 C-20.9424826 64.39339142 -20.93965271 63.41959534 -20.93673706 62.41629028 C-20.92551913 59.29823651 -20.9004117 56.18046732 -20.875 53.0625 C-20.86497228 50.95182706 -20.85584607 48.84114962 -20.84765625 46.73046875 C-20.82557458 41.54938165 -20.79208129 36.36846115 -20.75 31.1875 C-21.38808594 31.19910156 -22.02617187 31.21070312 -22.68359375 31.22265625 C-23.92302734 31.23619141 -23.92302734 31.23619141 -25.1875 31.25 C-26.42306641 31.26740234 -26.42306641 31.26740234 -27.68359375 31.28515625 C-29.75 31.1875 -29.75 31.1875 -30.75 30.1875 C-30.875 27.6875 -30.875 27.6875 -30.75 25.1875 C-29.75 24.1875 -29.75 24.1875 -27.68359375 24.08984375 C-26.44802734 24.10724609 -26.44802734 24.10724609 -25.1875 24.125 C-24.36121094 24.13402344 -23.53492188 24.14304687 -22.68359375 24.15234375 C-21.72646484 24.16974609 -21.72646484 24.16974609 -20.75 24.1875 C-20.79640625 23.630625 -20.8428125 23.07375 -20.890625 22.5 C-21.17576102 16.47140982 -20.2716175 12.15027174 -16.75 7.1875 C-11.98002144 2.03853684 -6.95986782 -0.10345749 0 0 Z " fill="#252525" transform="translate(528.75,51.8125)"/>
<path d="M0 0 C3.92424479 3.05219039 6.05959609 6.52791501 7.546875 11.203125 C7.84275103 14.10238269 7.85099116 16.98586697 7.84765625 19.8984375 C7.85194138 20.72769745 7.8562265 21.5569574 7.86064148 22.41134644 C7.86636701 24.15784799 7.86689818 25.90437338 7.86254883 27.65087891 C7.85937722 30.32625629 7.88290939 33.0005395 7.90820312 35.67578125 C7.9104751 37.37499861 7.91118009 39.07421893 7.91015625 40.7734375 C7.919366 41.57347198 7.92857574 42.37350647 7.93806458 43.19778442 C7.89218064 48.68152617 7.89218064 48.68152617 6.19213867 51.24951172 C4.546875 52.203125 4.546875 52.203125 1.859375 51.890625 C1.09625 51.66375 0.333125 51.436875 -0.453125 51.203125 C-1.113125 48.893125 -1.773125 46.583125 -2.453125 44.203125 C-3.175 45.151875 -3.896875 46.100625 -4.640625 47.078125 C-7.43206956 50.7468807 -10.55067958 51.93297206 -15.06640625 52.57421875 C-21.88204218 52.7418972 -26.25061863 51.70623782 -31.453125 47.203125 C-35.56041281 42.77989198 -36.81667304 39.35778711 -36.73828125 33.265625 C-36.15715414 29.06240429 -33.59544842 26.30605796 -30.640625 23.453125 C-24.35846584 19.86331977 -18.05287201 19.94639827 -11.015625 20.078125 C-10.09330078 20.08714844 -9.17097656 20.09617187 -8.22070312 20.10546875 C-5.96456691 20.1288484 -3.70898816 20.16161584 -1.453125 20.203125 C-1.68320633 18.61677478 -1.93812012 17.03401616 -2.203125 15.453125 C-2.34234375 14.57140625 -2.4815625 13.6896875 -2.625 12.78125 C-3.66062604 9.55713119 -4.72468715 8.20797376 -7.453125 6.203125 C-15.05096443 4.92676838 -21.48840861 6.29060723 -28.453125 9.203125 C-30.66796875 8.79296875 -30.66796875 8.79296875 -32.453125 8.203125 C-32.783125 6.553125 -33.113125 4.903125 -33.453125 3.203125 C-25.09856245 -4.42495385 -9.58072975 -5.81394711 0 0 Z " fill="#242424" transform="translate(482.453125,76.796875)"/>
<path d="M0 0 C19.54475309 9.19753086 19.54475309 9.19753086 28.0625 14 C31.011875 15.65 33.96125 17.3 37 19 C37 32.86 37 46.72 37 61 C27.79049305 56.39524652 18.60335558 51.80163433 9.5 47 C6.365 45.35 3.23 43.7 0 42 C0 28.14 0 14.28 0 0 Z " fill="#FCFCFC" transform="translate(50,75)"/>
<path d="M0 0 C0 13.86 0 27.72 0 42 C-8.600625 46.455 -8.600625 46.455 -17.375 51 C-20.08855713 52.40958984 -20.08855713 52.40958984 -22.85693359 53.84765625 C-24.28726836 54.5862601 -25.71775898 55.32456223 -27.1484375 56.0625 C-27.89391846 56.45115234 -28.63939941 56.83980469 -29.4074707 57.24023438 C-34.7718564 60 -34.7718564 60 -37 60 C-37 46.47 -37 32.94 -37 19 C-28.99004917 14.63093591 -20.9676267 10.33316588 -12.875 6.125 C-11.740625 5.53203125 -10.60625 4.9390625 -9.4375 4.328125 C-8.36242187 3.76867187 -7.28734375 3.20921875 -6.1796875 2.6328125 C-5.20757324 2.12637207 -4.23545898 1.61993164 -3.23388672 1.09814453 C-1 0 -1 0 0 0 Z " fill="#FEFEFE" transform="translate(127,75)"/>
<path d="M0 0 C2.3125 2.0625 2.3125 2.0625 3.375 4.625 C3.3125 7.0625 3.3125 7.0625 2.1875 8.9375 C0.3125 10.0625 0.3125 10.0625 -1.875 10 C-5.01590639 8.9530312 -7.81218299 7.56762124 -10.72265625 6 C-17.03612355 2.98761003 -24.90973424 2.90051136 -31.51953125 4.93359375 C-38.3064702 8.03706658 -41.91229197 11.85272095 -44.78125 18.65625 C-47.78902484 29.96133473 -47.16497233 43.26889278 -41.54296875 53.578125 C-38.05858743 58.2435282 -34.09590837 60.25969721 -28.6875 62.0625 C-19.13484909 62.96174646 -10.73570427 61.42796952 -2.6875 56.0625 C0 56.4375 0 56.4375 2.3125 57.0625 C2.6425 59.0425 2.9725 61.0225 3.3125 63.0625 C-7.34895659 71.01996398 -17.33046634 73.54661485 -30.6875 72.0625 C-40.18461187 69.42501636 -47.56487211 65.04925262 -52.51953125 56.390625 C-58.30645388 44.85548826 -59.61861303 32.36004982 -56.9921875 19.71484375 C-56.08417185 17.00224237 -55.03071585 14.58573724 -53.6875 12.0625 C-53.26339844 11.25425781 -52.83929688 10.44601563 -52.40234375 9.61328125 C-48.90931762 3.72670518 -44.67436683 0.28302147 -38.6875 -2.9375 C-38.08421875 -3.2778125 -37.4809375 -3.618125 -36.859375 -3.96875 C-25.3633363 -9.36688991 -10.55546413 -6.1281723 0 0 Z " fill="#252525" transform="translate(394.6875,56.9375)"/>
<path d="M0 0 C3.68211311 2.27149364 7.54243975 4.20216137 11.38232422 6.19042969 C12.78438124 6.93591906 14.18548964 7.68319644 15.58544922 8.43261719 C18.08338088 9.76458802 20.58959824 11.07028037 23.13232422 12.31542969 C19.82200322 14.98597924 16.31744432 16.87909562 12.53857422 18.81933594 C11.9100354 19.14328842 11.28149658 19.46724091 10.63391113 19.80101013 C8.63514641 20.83012457 6.6337835 21.85406736 4.63232422 22.87792969 C3.28710022 23.56965274 1.94204634 24.26170675 0.59716797 24.95410156 C-2.88823783 26.74686565 -6.37585953 28.53517308 -9.86767578 30.31542969 C-10.50890381 30.7854541 -11.15013184 31.25547852 -11.81079102 31.73974609 C-15.38998172 32.74149466 -18.27324414 30.56700415 -21.37158203 28.89746094 C-22.0912767 28.5244133 -22.81097137 28.15136566 -23.55247498 27.76701355 C-25.07349243 26.9748017 -26.59051824 26.17488572 -28.10375977 25.36791992 C-30.41700217 24.13495128 -32.74132657 22.92548545 -35.06884766 21.71972656 C-36.54546729 20.94698976 -38.02140266 20.17294371 -39.49658203 19.39746094 C-40.19038467 19.03481644 -40.88418732 18.67217194 -41.59901428 18.29853821 C-44.74624614 16.61407082 -47.55824104 15.08165186 -49.86767578 12.31542969 C-48.42783948 11.52197466 -46.98765824 10.7291456 -45.54736328 9.93652344 C-44.62648926 9.42959961 -43.70561523 8.92267578 -42.75683594 8.40039062 C-40.73799126 7.29694304 -38.71414256 6.20260445 -36.68554688 5.1171875 C-30.1395807 1.61535366 -30.1395807 1.61535366 -23.85205078 -2.32128906 C-14.24805327 -8.36287354 -8.80274651 -5.58631807 0 0 Z " fill="#FCFCFC" transform="translate(101.86767578125,59.6845703125)"/>
<path d="M0 0 C4.12593192 2.87855716 7.06537651 6.00862953 8.6875 10.875 C8.7826688 12.23002864 8.82552881 13.58916248 8.83276367 14.94750977 C8.83914352 15.76167862 8.84552338 16.57584747 8.85209656 17.41468811 C8.85320938 18.2897551 8.8543222 19.16482208 8.85546875 20.06640625 C8.86046135 21.41798073 8.86046135 21.41798073 8.86555481 22.79685974 C8.87061591 24.70074961 8.87296339 26.60464834 8.87280273 28.50854492 C8.87499413 31.42967183 8.89317179 34.35042405 8.91210938 37.27148438 C8.91504242 39.11979037 8.91702781 40.96809817 8.91796875 42.81640625 C8.92515427 43.69349747 8.93233978 44.57058868 8.93974304 45.47425842 C8.91632961 51.64617039 8.91632961 51.64617039 6.6875 53.875 C4.1875 54.125 4.1875 54.125 1.6875 53.875 C-1.26877156 50.91872844 -0.61026943 47.72375123 -0.62109375 43.76171875 C-0.6462609 42.1048143 -0.67165881 40.44791334 -0.69726562 38.79101562 C-0.72597479 36.17749999 -0.74998888 33.56404524 -0.76879883 30.95043945 C-0.79050153 28.42887215 -0.82995255 25.90803298 -0.87109375 23.38671875 C-0.87120956 22.60946945 -0.87132538 21.83222015 -0.8714447 21.03141785 C-0.95430513 16.47221742 -1.51100605 13.51481815 -4.3125 9.875 C-7.34671221 7.51505717 -10.57890606 7.51289424 -14.35546875 7.625 C-18.38442256 8.13967673 -20.6357017 10.19765331 -23.42163086 12.98583984 C-25.8217828 16.65316045 -25.86388852 19.67583918 -25.81640625 23.9140625 C-25.82582748 24.67673431 -25.83524872 25.43940613 -25.84495544 26.22518921 C-25.87353028 28.65040247 -25.87668562 31.07463222 -25.875 33.5 C-25.87860671 35.93236434 -25.8881029 38.36401867 -25.91575623 40.79623413 C-25.93255913 42.3064167 -25.93540846 43.81683393 -25.92274475 45.32705688 C-25.97363964 50.38713334 -25.97363964 50.38713334 -27.67553711 52.83740234 C-30.02244464 54.32500219 -31.59719137 54.29273979 -34.3125 53.875 C-36.46283302 50.64950047 -36.56439586 49.78413972 -36.57128906 46.06811523 C-36.57759338 45.09378036 -36.58389771 44.1194455 -36.59039307 43.11558533 C-36.5863446 42.06552811 -36.58229614 41.01547089 -36.578125 39.93359375 C-36.58003845 38.85497574 -36.5819519 37.77635773 -36.58392334 36.66505432 C-36.58528472 34.38452928 -36.58159159 32.10399649 -36.57324219 29.82348633 C-36.56253183 26.32290345 -36.57314465 22.82283259 -36.5859375 19.32226562 C-36.5846161 17.10937386 -36.58205412 14.89648242 -36.578125 12.68359375 C-36.58217346 11.6315123 -36.58622192 10.57943085 -36.59039307 9.49546814 C-36.58408875 8.52428543 -36.57778442 7.55310272 -36.57128906 6.55249023 C-36.56890228 5.26700539 -36.56890228 5.26700539 -36.56646729 3.95555115 C-36.3125 1.875 -36.3125 1.875 -34.3125 -0.125 C-31.1875 -0.25 -31.1875 -0.25 -28.3125 -0.125 C-27.6525 2.185 -26.9925 4.495 -26.3125 6.875 C-25.87679688 6.46507813 -25.44109375 6.05515625 -24.9921875 5.6328125 C-17.67517331 -0.98734319 -9.58279975 -3.25453576 0 0 Z " fill="#222222" transform="translate(1101.3125,75.125)"/>
<path d="M0 0 C3.5 0.125 3.5 0.125 4.5 1.125 C4.63556953 3.79196345 4.71062112 6.43663706 4.74609375 9.10546875 C4.77905288 10.76107258 4.81226415 12.41667141 4.84570312 14.07226562 C4.8929834 16.6878692 4.93736362 19.30345556 4.97680664 21.91918945 C5.01671836 24.43984167 5.06823905 26.96005925 5.12109375 29.48046875 C5.1295079 30.25569382 5.13792206 31.03091888 5.14659119 31.82963562 C5.24737258 36.29332115 5.82979098 39.91710906 7.5 44.125 C12.83694279 45.41880431 17.52603295 45.84625719 22.75 43.9375 C26.23352536 41.6415401 27.76594034 39.36742349 29.05664062 35.42456055 C29.67823351 32.20056087 29.70555538 29.05117465 29.78125 25.76953125 C29.79965942 25.06728928 29.81806885 24.3650473 29.83703613 23.64152527 C29.91554309 20.64536382 29.98373124 17.6489921 30.05224609 14.65258789 C30.10382719 12.46228433 30.1610991 10.27218207 30.21875 8.08203125 C30.24904297 6.77210205 30.27933594 5.46217285 30.31054688 4.11254883 C30.5 1.125 30.5 1.125 31.5 0.125 C35 0 35 0 38.5 0.125 C40.13791517 1.76291517 39.63567543 3.63020084 39.64526367 5.88842773 C39.65164352 6.90295517 39.65802338 7.9174826 39.66459656 8.9627533 C39.66570938 10.06688065 39.6668222 11.171008 39.66796875 12.30859375 C39.67296135 13.99735374 39.67296135 13.99735374 39.67805481 15.7202301 C39.68312894 18.10685821 39.68546299 20.49349345 39.68530273 22.88012695 C39.68748851 26.54324974 39.7056374 30.20607122 39.72460938 33.86914062 C39.72754326 36.18229063 39.72952809 38.49544208 39.73046875 40.80859375 C39.73765427 41.91069687 39.74483978 43.01279999 39.75224304 44.14830017 C39.74916641 45.16597977 39.74608978 46.18365936 39.74291992 47.23217773 C39.74434494 48.13072983 39.74576996 49.02928192 39.74723816 49.95506287 C39.5 52.125 39.5 52.125 37.5 54.125 C35 54.375 35 54.375 32.5 54.125 C29.9345406 51.5595406 29.95953913 49.64813332 29.5 46.125 C28.96375 46.888125 28.4275 47.65125 27.875 48.4375 C24.49039479 52.267448 21.80884776 53.89348092 16.65625 54.41015625 C9.50880964 54.61361062 4.85594481 53.92162068 -0.75 49.25 C-4.96314244 44.13404133 -4.78285119 39.02998377 -4.73046875 32.703125 C-4.73001053 31.80253357 -4.72955231 30.90194214 -4.7290802 29.97406006 C-4.72606753 28.07790808 -4.71821082 26.18175836 -4.70581055 24.28564453 C-4.68747692 21.37133104 -4.68530152 18.45733407 -4.68554688 15.54296875 C-4.68063429 13.70051807 -4.6748071 11.85806954 -4.66796875 10.015625 C-4.66685593 9.13964661 -4.6657431 8.26366821 -4.66459656 7.36114502 C-4.60753581 0.16455485 -4.60753581 0.16455485 0 0 Z " fill="#212121" transform="translate(836.5,74.875)"/>
<path d="M0 0 C3 0.25 3 0.25 5 2.25 C5.1953125 5.5078125 5.1953125 5.5078125 5.125 9.375 C5.10695313 10.65632813 5.08890625 11.93765625 5.0703125 13.2578125 C5.04710937 14.24523437 5.02390625 15.23265625 5 16.25 C6.05960937 16.22679688 7.11921875 16.20359375 8.2109375 16.1796875 C9.5989513 16.16093056 10.9869727 16.14273028 12.375 16.125 C13.42300781 16.09986328 13.42300781 16.09986328 14.4921875 16.07421875 C16.32897486 16.05655733 18.16601963 16.14696739 20 16.25 C20.66 16.91 21.32 17.57 22 18.25 C21.75 20.8125 21.75 20.8125 21 23.25 C17.99686252 24.75156874 15.20932478 24.34281204 11.875 24.3125 C10.59367187 24.30347656 9.31234375 24.29445313 7.9921875 24.28515625 C7.00476563 24.27355469 6.01734375 24.26195313 5 24.25 C5.01945829 28.71663048 5.07128596 33.18138359 5.15258789 37.6472168 C5.17572451 39.16501168 5.19015348 40.68296613 5.19555664 42.20092773 C5.20487922 44.3888643 5.24593151 46.57430687 5.29296875 48.76171875 C5.3086792 50.07615967 5.32438965 51.39060059 5.34057617 52.74487305 C6.15561426 57.07715804 7.56039226 58.57334136 11 61.25 C14.11640738 61.84983747 14.11640738 61.84983747 17.3125 61.5625 C18.38113281 61.51738281 19.44976562 61.47226563 20.55078125 61.42578125 C21.35902344 61.36777344 22.16726563 61.30976562 23 61.25 C23 63.56 23 65.87 23 68.25 C17.63702878 71.11025132 11.4961966 71.24805954 5.71484375 69.59765625 C0.39813945 67.28215699 -1.59340295 64.44824962 -4 59.25 C-4.33 58.59 -4.66 57.93 -5 57.25 C-5.08649451 54.76900266 -5.11565054 52.31655072 -5.09765625 49.8359375 C-5.0962413 49.10629791 -5.09482635 48.37665833 -5.09336853 47.62490845 C-5.08776531 45.29156415 -5.07521235 42.95831536 -5.0625 40.625 C-5.05748541 39.04427222 -5.05292243 37.46354293 -5.04882812 35.8828125 C-5.03779484 32.00517146 -5.02052811 28.12760193 -5 24.25 C-8.02429199 24.31103516 -8.02429199 24.31103516 -11.04858398 24.37207031 C-13 24.25 -13 24.25 -15.0625 23 C-16 21.25 -16 21.25 -15.75 19.125 C-15 17.25 -15 17.25 -14 16.25 C-12.48071962 16.17820036 -10.95832518 16.16607993 -9.4375 16.1875 C-8.61121094 16.19652344 -7.78492188 16.20554687 -6.93359375 16.21484375 C-6.29550781 16.22644531 -5.65742188 16.23804687 -5 16.25 C-5.02320313 15.26257813 -5.04640625 14.27515625 -5.0703125 13.2578125 C-5.08835937 11.97648437 -5.10640625 10.69515625 -5.125 9.375 C-5.14820313 8.09882812 -5.17140625 6.82265625 -5.1953125 5.5078125 C-4.93800038 1.21584636 -4.30756802 0.358964 0 0 Z " fill="#262626" transform="translate(308,58.75)"/>
<path d="M0 0 C3.795 -0.061875 7.59 -0.12375 11.5 -0.1875 C13.27020508 -0.22846802 13.27020508 -0.22846802 15.07617188 -0.27026367 C22.53690394 -0.32882614 28.89721409 -0.02521626 34.5 5.4375 C36.70110865 10.66513303 36.73601538 15.4108832 36 21 C34.16491186 25.35833433 32.86217971 26.58088486 28.625 28.640625 C23.01532943 30.63706031 17.37945972 30.32356887 11.5 30.1875 C7.705 30.125625 3.91 30.06375 0 30 C0 20.1 0 10.2 0 0 Z " fill="#FAFAFA" transform="translate(616,60)"/>
<path d="M0 0 C4.22618381 3.19120002 6.01915514 6.20464646 7.0625 11.3125 C7.86652769 20.42042023 6.91690069 27.64049916 1 34.8125 C-2.76632731 37.72836631 -6.76899949 37.77800731 -11.36328125 37.7109375 C-15.80066223 37.02411981 -18.30228585 34.85539902 -20.9375 31.3125 C-24.26517006 25.18007947 -24.96378376 18.1511946 -23.9375 11.3125 C-22.34413899 6.58487329 -20.34221946 2.67708462 -16.75 -0.8125 C-11.1093357 -2.56737334 -5.33005048 -2.78384802 0 0 Z " fill="#FAFAFA" transform="translate(1035.9375,83.6875)"/>
<path d="M0 0 C4.68160527 3.53508969 6.1108628 6.66060254 7.0625 12.3125 C7.86957108 21.04474451 6.66349598 27.94765639 1 34.8125 C-2.76632731 37.72836631 -6.76899949 37.77800731 -11.36328125 37.7109375 C-15.80066223 37.02411981 -18.30228585 34.85539902 -20.9375 31.3125 C-24.26517006 25.18007947 -24.96378376 18.1511946 -23.9375 11.3125 C-22.34413899 6.58487329 -20.34221946 2.67708462 -16.75 -0.8125 C-11.1093357 -2.56737334 -5.33005048 -2.78384802 0 0 Z " fill="#FBFBFB" transform="translate(799.9375,83.6875)"/>
<path d="M0 0 C3.375 -0.125 3.375 -0.125 7 0 C9 2 9 2 9.1953125 5.2578125 C9.17210937 6.53398438 9.14890625 7.81015625 9.125 9.125 C9.10695313 10.40632813 9.08890625 11.68765625 9.0703125 13.0078125 C9.04710937 13.99523437 9.02390625 14.98265625 9 16 C10.07121094 15.98839844 11.14242187 15.97679688 12.24609375 15.96484375 C13.64322743 15.95546701 15.04036299 15.94636669 16.4375 15.9375 C17.14455078 15.92912109 17.85160156 15.92074219 18.58007812 15.91210938 C20.38693559 15.90346412 22.19387603 15.94779989 24 16 C25 17 25 17 25.1875 19.4375 C25 22 25 22 23 24 C19.7421875 24.1953125 19.7421875 24.1953125 15.875 24.125 C13.95300781 24.09792969 13.95300781 24.09792969 11.9921875 24.0703125 C11.00476563 24.04710938 10.01734375 24.02390625 9 24 C9.01945829 28.46663048 9.07128596 32.93138359 9.15258789 37.3972168 C9.17572451 38.91501168 9.19015348 40.43296613 9.19555664 41.95092773 C9.20487922 44.1388643 9.24593151 46.32430687 9.29296875 48.51171875 C9.3086792 49.82615967 9.32438965 51.14060059 9.34057617 52.49487305 C10.15465874 56.82207903 11.5721256 58.31926308 15 61 C17.85505912 61.56253885 17.85505912 61.56253885 20.75 61.25 C22.49895973 61.14712002 24.2490026 61.0587583 26 61 C27 62 27 62 27.0625 65.0625 C27.041875 66.031875 27.02125 67.00125 27 68 C21.07311277 70.65908995 14.86946758 71.38195271 8.6484375 69.16015625 C4.44075888 66.8199305 1.89207148 64.22719789 -0.21704102 59.7734375 C-2.05171777 53.27455135 -1.39629348 46.19913725 -1.25 39.5 C-1.22990783 37.89845979 -1.21166185 36.29689529 -1.1953125 34.6953125 C-1.15152271 30.79626919 -1.08264721 26.89840534 -1 23 C-4.3 23 -7.6 23 -11 23 C-11.625 20.625 -11.625 20.625 -12 18 C-10 16 -10 16 -7.8359375 15.8046875 C-6.61777344 15.83949219 -6.61777344 15.83949219 -5.375 15.875 C-4.14910156 15.90207031 -4.14910156 15.90207031 -2.8984375 15.9296875 C-1.95871094 15.96449219 -1.95871094 15.96449219 -1 16 C-1.01160156 15.01257813 -1.02320313 14.02515625 -1.03515625 13.0078125 C-1.04417969 11.72648437 -1.05320312 10.44515625 -1.0625 9.125 C-1.07410156 7.84882812 -1.08570313 6.57265625 -1.09765625 5.2578125 C-1 2 -1 2 0 0 Z " fill="#262626" transform="translate(945,59)"/>
<path d="M0 0 C4.1370156 1.915285 7.17207893 4.43475442 9.30859375 8.546875 C10.28545583 12.01280372 10.39907427 15.42395459 10.4375 19 C10.44765137 19.67643555 10.45780273 20.35287109 10.46826172 21.04980469 C10.3809263 26.12017955 9.29443295 29.57580632 7 34 C2.15269708 38.49262222 -0.99629406 39.37199678 -7.4609375 39.26953125 C-11.94659798 38.79336114 -14.39717239 36.90335779 -17.25 33.515625 C-21.46934915 26.89359092 -20.77110296 18.51431964 -20 11 C-18.80764317 6.79995657 -16.57113463 4.5303393 -13.375 1.5625 C-8.78933169 -0.56049459 -4.97095798 -0.78531421 0 0 Z " fill="#FCFCFC" transform="translate(737,82)"/>
<path d="M0 0 C4.29 -0.0825 8.58 -0.165 13 -0.25 C14.33675781 -0.28641602 15.67351562 -0.32283203 17.05078125 -0.36035156 C24.18365288 -0.42655486 29.01073864 -0.00243908 35 4 C38.11893326 8.67839989 37.58602209 13.5232257 37 19 C35.32457365 22.59906402 34.2981344 24.33893013 30.76879883 26.13623047 C27.50762706 27.15360334 24.80141378 27.22649693 21.38671875 27.1953125 C20.13955078 27.18886719 18.89238281 27.18242188 17.60742188 27.17578125 C16.31384766 27.15902344 15.02027344 27.14226562 13.6875 27.125 C12.37458984 27.11597656 11.06167969 27.10695313 9.70898438 27.09765625 C6.47257813 27.07411875 3.23626581 27.03824871 0 27 C0 18.09 0 9.18 0 0 Z " fill="#FDFDFD" transform="translate(214,93)"/>
<path d="M0 0 C3.8894052 2.2019052 3.8894052 2.2019052 5.25 3.5625 C5.29063832 5.22867115 5.292721 6.89638095 5.25 8.5625 C3.125 9.25 3.125 9.25 0.25 9.5625 C-0.61625 9.088125 -1.4825 8.61375 -2.375 8.125 C-7.19176833 5.89501466 -11.52464732 5.87822763 -16.75 6.5625 C-20.6875195 8.32032121 -22.25085641 9.81378461 -24.625 13.375 C-27.21240148 20.53296098 -27.22897096 30.37458192 -24.0625 37.3125 C-21.1604624 41.47142909 -21.1604624 41.47142909 -16.75 43.5625 C-10.17301465 44.26645868 -5.58159301 43.83388144 0.25 40.5625 C2.625 40.875 2.625 40.875 4.25 41.5625 C4.745 44.0375 4.745 44.0375 5.25 46.5625 C-2.55873164 52.14016546 -9.23785843 53.57496185 -18.75 52.5625 C-25.57901889 50.48800329 -30.36392024 46.0774476 -34 40 C-38.10182148 31.94285066 -38.24038315 21.1409902 -35.9140625 12.43359375 C-32.83093636 5.65692387 -28.02423983 1.60424432 -21.38671875 -1.56640625 C-14.242782 -3.92655128 -6.68705512 -3.32909507 0 0 Z " fill="#242424" transform="translate(925.75,76.4375)"/>
<path d="M0 0 C4.20872148 -0.08105241 8.4158763 -0.14053316 12.625 -0.1875 C14.40970703 -0.22520508 14.40970703 -0.22520508 16.23046875 -0.26367188 C27.45760023 -0.35775398 27.45760023 -0.35775398 32 3 C34.97443034 5.9807321 35.45384521 8.27779976 35.5 12.4375 C35.39168142 16.49944666 35.2278279 17.68990092 32.75 21.0625 C28.22171118 24.25288531 25.52854998 25.2502799 19.921875 25.1953125 C18.18164062 25.18564453 18.18164062 25.18564453 16.40625 25.17578125 C15.1996875 25.15902344 13.993125 25.14226562 12.75 25.125 C10.91695312 25.11146484 10.91695312 25.11146484 9.046875 25.09765625 C6.03116634 25.07409603 3.01555842 25.03822539 0 25 C0 16.75 0 8.5 0 0 Z " fill="#FDFDFD" transform="translate(214,60)"/>
<path d="M0 0 C3 0.25 3 0.25 5 2.25 C5.625 4.875 5.625 4.875 6 7.25 C6.7425 6.46625 7.485 5.6825 8.25 4.875 C11.96009096 1.33354954 14.48535729 -0.03437888 19.625 0 C20.40101563 -0.00515625 21.17703125 -0.0103125 21.9765625 -0.015625 C24 0.25 24 0.25 26 2.25 C25.625 4.875 25.625 4.875 25 7.25 C24.19175781 7.42015625 23.38351562 7.5903125 22.55078125 7.765625 C13.45731136 9.67895684 13.45731136 9.67895684 6.90429688 15.89404297 C5.62413159 19.22924681 5.68219499 22.48370043 5.65625 26.0078125 C5.6416272 26.75207489 5.62700439 27.49633728 5.61193848 28.26315308 C5.54978036 31.43942455 5.50996616 34.61588507 5.46826172 37.79248047 C5.43459599 40.11446747 5.38948438 42.43603702 5.34375 44.7578125 C5.3384729 45.47865021 5.3331958 46.19948792 5.32775879 46.94216919 C5.2256475 52.0243525 5.2256475 52.0243525 3 54.25 C0 54.5625 0 54.5625 -3 54.25 C-5.15033302 51.02450047 -5.25189586 50.15913972 -5.25878906 46.44311523 C-5.26509338 45.46878036 -5.27139771 44.4944455 -5.27789307 43.49058533 C-5.2738446 42.44052811 -5.26979614 41.39047089 -5.265625 40.30859375 C-5.26753845 39.22997574 -5.2694519 38.15135773 -5.27142334 37.04005432 C-5.27278472 34.75952928 -5.26909159 32.47899649 -5.26074219 30.19848633 C-5.25003183 26.69790345 -5.26064465 23.19783259 -5.2734375 19.69726562 C-5.2721161 17.48437386 -5.26955412 15.27148242 -5.265625 13.05859375 C-5.26967346 12.0065123 -5.27372192 10.95443085 -5.27789307 9.87046814 C-5.27158875 8.89928543 -5.26528442 7.92810272 -5.25878906 6.92749023 C-5.25640228 5.64200539 -5.25640228 5.64200539 -5.25396729 4.33055115 C-4.81565174 0.73978192 -3.44506044 0.28708837 0 0 Z " fill="#262626" transform="translate(415,74.75)"/>
<path d="M0 0 C2.9375 0.1875 2.9375 0.1875 3.9375 1.1875 C4.30510731 3.51567964 4.63991581 5.8493385 4.9375 8.1875 C5.47375 7.424375 6.01 6.66125 6.5625 5.875 C9.70595669 2.31793059 12.46956519 0.41297577 17.2890625 -0.02734375 C19.53326229 -0.05940375 21.70617255 -0.05677164 23.9375 0.1875 C24.9375 1.1875 24.9375 1.1875 25 4.25 C24.979375 5.219375 24.95875 6.18875 24.9375 7.1875 C24.14085937 7.34605469 23.34421875 7.50460938 22.5234375 7.66796875 C16.05927673 9.09134235 11.43419225 10.20467886 6.9375 15.1875 C5.58552465 18.83825169 5.77859196 22.61985114 5.7265625 26.47265625 C5.69851216 27.90430867 5.66984784 29.33594916 5.640625 30.76757812 C5.59927093 33.01472872 5.562364 35.26165211 5.53613281 37.5090332 C5.50856353 39.68486767 5.46272074 41.859705 5.4140625 44.03515625 C5.39424316 45.33461182 5.37442383 46.63406738 5.35400391 47.97290039 C4.9375 51.1875 4.9375 51.1875 3.56787109 53.11108398 C1.23157777 54.65356935 -0.32988477 54.60790234 -3.0625 54.1875 C-5.21283302 50.96200047 -5.31439586 50.09663972 -5.32128906 46.38061523 C-5.32759338 45.40628036 -5.33389771 44.4319455 -5.34039307 43.42808533 C-5.3363446 42.37802811 -5.33229614 41.32797089 -5.328125 40.24609375 C-5.33003845 39.16747574 -5.3319519 38.08885773 -5.33392334 36.97755432 C-5.33528472 34.69702928 -5.33159159 32.41649649 -5.32324219 30.13598633 C-5.31253183 26.63540345 -5.32314465 23.13533259 -5.3359375 19.63476562 C-5.3346161 17.42187386 -5.33205412 15.20898242 -5.328125 12.99609375 C-5.33217346 11.9440123 -5.33622192 10.89193085 -5.34039307 9.80796814 C-5.33408875 8.83678543 -5.32778442 7.86560272 -5.32128906 6.86499023 C-5.31890228 5.57950539 -5.31890228 5.57950539 -5.31646729 4.26805115 C-4.87219225 0.62846059 -3.49219118 0.21380762 0 0 Z " fill="#222222" transform="translate(677.0625,74.8125)"/>
<path d="M0 0 C3 -0.3125 3 -0.3125 6 0 C8.48729051 2.48729051 8.25621524 3.24703787 8.2746582 6.67749023 C8.28419022 7.64867294 8.29372223 8.61985565 8.30354309 9.62046814 C8.30263168 10.67254959 8.30172028 11.72463104 8.30078125 12.80859375 C8.30506638 13.88625504 8.3093515 14.96391632 8.31376648 16.07423401 C8.31951726 18.35652971 8.32000457 20.63884374 8.31567383 22.92114258 C8.31251602 26.41975081 8.33595702 29.91751217 8.36132812 33.41601562 C8.36360119 35.63020726 8.36430458 37.84440118 8.36328125 40.05859375 C8.372491 41.10865097 8.38170074 42.15870819 8.39118958 43.24058533 C8.38496078 44.2149202 8.37873199 45.18925507 8.37231445 46.19311523 C8.37294388 47.05090073 8.3735733 47.90868622 8.3742218 48.79246521 C7.91530938 51.49959007 7.2241368 52.41993103 5 54 C1.875 53.8125 1.875 53.8125 -1 53 C-2.19954489 50.60091023 -2.13309714 49.09295193 -2.14526367 46.41430664 C-2.15164352 45.46314468 -2.15802338 44.51198273 -2.16459656 43.53199768 C-2.16626579 41.98668617 -2.16626579 41.98668617 -2.16796875 40.41015625 C-2.17129715 39.35469101 -2.17462555 38.29922577 -2.17805481 37.21177673 C-2.18312399 34.97655677 -2.18546314 32.74132922 -2.18530273 30.50610352 C-2.18748876 27.0801145 -2.20564347 23.6544476 -2.22460938 20.22851562 C-2.22754334 18.05989694 -2.22952811 15.89127672 -2.23046875 13.72265625 C-2.24124702 12.18038109 -2.24124702 12.18038109 -2.25224304 10.60694885 C-2.24916641 9.65263474 -2.24608978 8.69832062 -2.24291992 7.71508789 C-2.24434494 6.87506729 -2.24576996 6.03504669 -2.24723816 5.16957092 C-2 3 -2 3 0 0 Z " fill="#262626" transform="translate(982,75)"/>
<path d="M0 0 C3 -0.3125 3 -0.3125 6 0 C8.48729051 2.48729051 8.25621524 3.24703787 8.2746582 6.67749023 C8.28419022 7.64867294 8.29372223 8.61985565 8.30354309 9.62046814 C8.30263168 10.67254959 8.30172028 11.72463104 8.30078125 12.80859375 C8.30506638 13.88625504 8.3093515 14.96391632 8.31376648 16.07423401 C8.31951726 18.35652971 8.32000457 20.63884374 8.31567383 22.92114258 C8.31251602 26.41975081 8.33595702 29.91751217 8.36132812 33.41601562 C8.36360119 35.63020726 8.36430458 37.84440118 8.36328125 40.05859375 C8.372491 41.10865097 8.38170074 42.15870819 8.39118958 43.24058533 C8.38496078 44.2149202 8.37873199 45.18925507 8.37231445 46.19311523 C8.37294388 47.05090073 8.3735733 47.90868622 8.3742218 48.79246521 C7.91530938 51.49959007 7.2241368 52.41993103 5 54 C1.875 53.8125 1.875 53.8125 -1 53 C-2.19954489 50.60091023 -2.13309714 49.09295193 -2.14526367 46.41430664 C-2.15164352 45.46314468 -2.15802338 44.51198273 -2.16459656 43.53199768 C-2.16626579 41.98668617 -2.16626579 41.98668617 -2.16796875 40.41015625 C-2.17129715 39.35469101 -2.17462555 38.29922577 -2.17805481 37.21177673 C-2.18312399 34.97655677 -2.18546314 32.74132922 -2.18530273 30.50610352 C-2.18748876 27.0801145 -2.20564347 23.6544476 -2.22460938 20.22851562 C-2.22754334 18.05989694 -2.22952811 15.89127672 -2.23046875 13.72265625 C-2.24124702 12.18038109 -2.24124702 12.18038109 -2.25224304 10.60694885 C-2.24916641 9.65263474 -2.24608978 8.69832062 -2.24291992 7.71508789 C-2.24434494 6.87506729 -2.24576996 6.03504669 -2.24723816 5.16957092 C-2 3 -2 3 0 0 Z " fill="#262626" transform="translate(277,75)"/>
<path d="M0 0 C1.13598633 0.00483398 1.13598633 0.00483398 2.29492188 0.00976562 C3.47344727 0.02233398 3.47344727 0.02233398 4.67578125 0.03515625 C5.47306641 0.03966797 6.27035156 0.04417969 7.09179688 0.04882812 C9.05732382 0.06059775 11.0228121 0.07853277 12.98828125 0.09765625 C12.73840551 6.41951238 12.40475215 11.20372904 7.98828125 16.09765625 C3.23308284 19.33983698 -0.43377918 19.71742731 -6.01171875 19.09765625 C-8.82175335 17.30401714 -10.52112343 16.0788469 -12.01171875 13.09765625 C-12.51540879 7.8928592 -12.51540879 7.8928592 -12.01171875 5.09765625 C-8.43849932 1.33128983 -5.12400581 -0.03852636 0 0 Z " fill="#F7F7F7" transform="translate(468.01171875,102.90234375)"/>
<path d="M0 0 C1.875 1.125 1.875 1.125 3 3 C3.3125 6.0625 3.3125 6.0625 3 9 C0.67471713 11.32528287 0.15334102 11.29511025 -3 11.3125 C-3.70125 11.32925781 -4.4025 11.34601562 -5.125 11.36328125 C-5.74375 11.24339844 -6.3625 11.12351562 -7 11 C-9.15502531 7.76746204 -9.46856135 6.74849077 -9 3 C-6.73529086 -0.64869805 -4.03159541 -0.50394943 0 0 Z " fill="#252525" transform="translate(988,52)"/>
<path d="M0 0 C1.875 1.125 1.875 1.125 3 3 C3.3125 6.0625 3.3125 6.0625 3 9 C0.67471713 11.32528287 0.15334102 11.29511025 -3 11.3125 C-3.70125 11.32925781 -4.4025 11.34601562 -5.125 11.36328125 C-5.74375 11.24339844 -6.3625 11.12351562 -7 11 C-9.15502531 7.76746204 -9.46856135 6.74849077 -9 3 C-6.73529086 -0.64869805 -4.03159541 -0.50394943 0 0 Z " fill="#252525" transform="translate(283,52)"/>
<path d="M0 0 C2 1 2 1 3 3 C-0.68524786 4.94180581 -4.37358927 6.87766298 -8.0625 8.8125 C-9.10083984 9.35970703 -10.13917969 9.90691406 -11.20898438 10.47070312 C-16.40292429 13.19133832 -21.5627464 15.80196131 -27 18 C-27 16.68 -27 15.36 -27 14 C-23.19670957 11.97767565 -19.38812416 9.96582669 -15.57421875 7.96362305 C-14.27680215 7.28062681 -12.98089248 6.59476017 -11.68652344 5.90600586 C-9.82873361 4.91807704 -7.96581835 3.94050361 -6.1015625 2.96484375 C-4.98088379 2.3730835 -3.86020508 1.78132324 -2.70556641 1.17163086 C-1.81272949 0.78499268 -0.91989258 0.39835449 0 0 Z " fill="#090909" transform="translate(121,74)"/>
<path d="M0 0 C2 1 2 1 3 3 C-2.445 5.475 -2.445 5.475 -8 8 C-8 6.68 -8 5.36 -8 4 C-6.71349294 3.30289269 -5.42059335 2.61757124 -4.125 1.9375 C-3.40570313 1.55464844 -2.68640625 1.17179687 -1.9453125 0.77734375 C-1.30335937 0.52082031 -0.66140625 0.26429687 0 0 Z " fill="#1E1E1E" transform="translate(102,84)"/>
<path d="M0 0 C2 1 2 1 3 3 C0.03 4.32 -2.94 5.64 -6 7 C-6 5.68 -6 4.36 -6 3 C-4.03533587 1.93224776 -2.03144641 0.93446535 0 0 Z " fill="#232323" transform="translate(121,74)"/>
</svg>
